<?xml version="1.0" standalone="no"?>
<!DOCTYPE svg PUBLIC "-//W3C//DTD SVG 20010904//EN"
 "http://www.w3.org/TR/2001/REC-SVG-20010904/DTD/svg10.dtd">
<svg version="1.0" xmlns="http://www.w3.org/2000/svg"
 width="827.000000pt" height="827.000000pt" viewBox="0 0 827.000000 827.000000"
 preserveAspectRatio="xMidYMid meet">
<metadata>
Created by potrace 1.11, written by Peter Selinger 2001-2013
</metadata>
<g transform="translate(0.000000,827.000000) scale(0.100000,-0.100000)"
fill="#000000" stroke="none">
<path d="M4078 7635 c-1 -2 -37 -6 -78 -10 -41 -3 -86 -8 -100 -10 -14 -2 -59
-7 -100 -10 -41 -3 -86 -8 -100 -10 -14 -2 -54 -6 -90 -10 -36 -3 -87 -8 -115
-11 -27 -2 -66 -7 -85 -9 -19 -2 -64 -7 -100 -10 -36 -3 -81 -8 -100 -10 -19
-2 -60 -6 -90 -9 -30 -3 -122 -12 -205 -21 -244 -25 -337 -35 -390 -40 -68 -6
-142 -14 -190 -20 -22 -2 -67 -7 -100 -10 -74 -7 -152 -15 -185 -20 -14 -2
-59 -6 -100 -10 -41 -4 -88 -9 -105 -10 -16 -2 -55 -6 -85 -10 -30 -3 -75 -7
-100 -10 -25 -3 -70 -7 -100 -10 -91 -9 -163 -16 -195 -20 -16 -2 -61 -7 -100
-10 -38 -4 -81 -8 -95 -10 -14 -2 -56 -7 -95 -11 -159 -14 -211 -77 -186 -226
7 -40 15 -86 17 -103 3 -16 9 -43 14 -60 4 -16 11 -48 15 -70 7 -42 11 -63 20
-105 4 -20 35 -179 60 -310 3 -14 8 -38 12 -55 3 -16 7 -37 9 -45 1 -8 9 -46
17 -85 9 -38 18 -90 22 -115 4 -24 8 -47 10 -50 2 -3 6 -21 9 -40 3 -19 37
-194 75 -387 39 -194 73 -365 76 -380 2 -16 14 -75 26 -133 11 -58 23 -116 25
-130 3 -14 18 -92 35 -174 16 -82 32 -163 35 -180 3 -17 9 -49 14 -71 5 -22
12 -55 15 -74 3 -19 20 -103 36 -185 17 -83 32 -162 35 -176 2 -14 9 -45 14
-70 5 -25 16 -81 24 -125 9 -44 18 -91 21 -105 3 -14 8 -34 9 -45 3 -17 15
-79 40 -205 3 -14 26 -131 52 -260 38 -194 69 -349 110 -548 23 -111 122 -346
183 -435 17 -25 31 -48 31 -51 0 -8 123 -169 168 -221 125 -143 357 -364 552
-525 30 -25 64 -53 75 -62 479 -404 818 -627 1146 -754 l92 -35 435 1 c388 1
438 2 463 17 44 26 65 82 60 162 0 12 -16 38 -34 56 l-33 33 -185 1 c-101 0
-204 0 -227 1 -36 0 -49 6 -72 30 -53 56 -47 170 11 211 26 18 48 19 569 19
609 0 586 -3 621 73 30 66 25 118 -13 159 l-33 35 -396 0 c-373 0 -398 1 -422
19 -70 51 -68 180 3 223 28 17 72 18 768 18 833 0 776 -6 831 84 37 61 20 158
-31 175 -13 5 -293 9 -623 10 -330 1 -609 2 -621 3 -12 0 -35 14 -52 31 -55
52 -55 144 -1 196 l30 29 774 1 c425 1 786 5 802 8 95 24 143 170 78 236 l-25
25 -953 0 c-892 0 -955 1 -980 18 -37 24 -59 60 -62 104 -4 70 40 128 104 137
20 3 482 5 1028 4 962 0 993 0 1025 19 92 54 114 182 39 231 -23 16 -104 17
-962 17 -935 0 -938 0 -966 21 -35 26 -53 60 -53 102 0 48 25 95 63 117 31 19
60 20 913 20 823 0 883 1 920 18 97 44 124 182 46 233 -23 15 -108 16 -1036
16 -741 0 -1020 3 -1046 11 -106 36 -106 207 1 243 13 4 492 8 1064 9 572 1
1054 5 1071 9 18 4 48 25 68 47 29 30 38 50 43 89 5 47 4 51 -30 85 -26 26
-44 35 -68 36 -19 0 -379 1 -801 2 l-767 2 -31 30 c-67 64 -51 167 33 212 29
16 97 17 852 18 915 1 855 -4 911 71 22 28 28 47 28 87 0 45 -4 53 -34 79
l-34 28 -1144 0 c-1233 0 -1169 -3 -1218 52 -62 67 -19 185 73 204 17 3 548 7
1180 7 1087 2 1150 3 1183 20 49 26 82 71 87 121 6 52 -7 80 -50 106 -31 19
-59 20 -937 20 -879 0 -906 1 -937 20 -91 55 -86 167 10 220 l40 23 931 1 931
1 37 23 c54 34 81 76 81 127 0 50 -25 88 -69 104 -22 8 -345 11 -1118 11
l-1088 0 -39 22 c-99 56 -83 192 28 229 24 7 349 11 1106 11 1010 0 1074 1
1113 18 120 52 133 204 20 239 -19 6 -414 9 -1011 9 -910 -1 -984 0 -1017 16
-94 45 -99 163 -9 218 l36 23 1080 5 c1207 6 1113 -1 1172 77 35 45 38 109 8
143 -44 49 -22 48 -1009 48 l-927 1 -39 22 c-87 49 -83 155 9 211 l36 23 916
5 916 5 42 29 c69 48 92 117 57 170 -35 54 -55 59 -256 71 -58 3 -125 7 -150
10 -25 2 -79 7 -120 10 -41 3 -95 8 -120 10 -25 3 -81 7 -125 10 -44 3 -96 8
-115 10 -19 2 -75 7 -125 10 -49 4 -101 8 -115 10 -14 2 -61 7 -105 10 -44 3
-94 8 -112 10 -17 3 -71 7 -120 10 -48 3 -99 8 -113 10 -23 4 -133 14 -225 20
-68 5 -178 15 -220 20 -22 3 -71 7 -110 10 -38 3 -86 7 -105 10 -19 2 -71 7
-115 10 -44 4 -91 8 -105 10 -14 2 -54 7 -90 10 -36 3 -92 8 -125 11 -33 3
-76 7 -95 9 -19 2 -73 7 -120 11 -47 3 -92 7 -100 9 -8 2 -53 6 -100 10 -47 4
-92 8 -100 10 -8 2 -53 6 -100 10 -47 4 -101 8 -122 10 -20 2 -38 2 -40 0z"/>
</g>
</svg>
